<svg xmlns="http://www.w3.org/2000/svg" width="1024" height="1024" viewBox="0 0 120 120">
  <defs>
    <!-- 与打包标 build/icon.svg 同一枚几何跳蛛，官网 favicon / 顶栏 logo 不再用旧 pi wordmark。 -->
    <linearGradient id="bg" x1="0" y1="0" x2="1" y2="1">
      <stop stop-color="#161719"/>
      <stop offset="0.58" stop-color="#050506"/>
      <stop offset="1" stop-color="#000000"/>
    </linearGradient>
    <linearGradient id="shine" x1="0.3" y1="0" x2="0.7" y2="1">
      <stop stop-color="#ffffff" stop-opacity="0.16"/>
      <stop offset="0.55" stop-color="#ffffff" stop-opacity="0"/>
    </linearGradient>
  </defs>
  <rect width="120" height="120" rx="26" fill="url(#bg)"/>
  <rect width="120" height="58" rx="26" fill="url(#shine)"/>
  <g fill="#f4f4f5">
    <ellipse cx="60" cy="50" rx="17" ry="15"/>
    <ellipse cx="60" cy="72" rx="11" ry="13"/>
    <path d="M47 40 24 16 34 14 54 38Z"/>
    <path d="M43 48 12 34 20 28 46 46Z"/>
    <path d="M43 60 12 76 20 82 46 62Z"/>
    <path d="M49 70 28 98 38 100 56 72Z"/>
    <path d="M73 40 96 16 86 14 66 38Z"/>
    <path d="M77 48 108 34 100 28 74 46Z"/>
    <path d="M77 60 108 76 100 82 74 62Z"/>
    <path d="M71 70 92 98 82 100 64 72Z"/>
  </g>
</svg>
